<svg id="visual" viewBox="0 0 900 600" width="900" height="600" xmlns="http://www.w3.org/2000/svg" xmlns:xlink="http://www.w3.org/1999/xlink" version="1.1"><rect x="0" y="0" width="900" height="600" fill="#f5fbff"></rect><path d="M0 393L37.5 392.7C75 392.3 150 391.7 225 385.8C300 380 375 369 450 364C525 359 600 360 675 367.8C750 375.7 825 390.3 862.5 397.7L900 405L900 601L862.5 601C825 601 750 601 675 601C600 601 525 601 450 601C375 601 300 601 225 601C150 601 75 601 37.5 601L0 601Z" fill="#363636"></path><path d="M0 456L37.5 451.2C75 446.3 150 436.7 225 426.8C300 417 375 407 450 407.8C525 408.7 600 420.3 675 423.7C750 427 825 422 862.5 419.5L900 417L900 601L862.5 601C825 601 750 601 675 601C600 601 525 601 450 601C375 601 300 601 225 601C150 601 75 601 37.5 601L0 601Z" fill="#2a2a2a"></path><path d="M0 468L37.5 465.7C75 463.3 150 458.7 225 456.3C300 454 375 454 450 457.8C525 461.7 600 469.3 675 470.3C750 471.3 825 465.7 862.5 462.8L900 460L900 601L862.5 601C825 601 750 601 675 601C600 601 525 601 450 601C375 601 300 601 225 601C150 601 75 601 37.5 601L0 601Z" fill="#1e1e1e"></path><path d="M0 506L37.5 502.3C75 498.7 150 491.3 225 487.5C300 483.7 375 483.3 450 491.2C525 499 600 515 675 522.7C750 530.3 825 529.7 862.5 529.3L900 529L900 601L862.5 601C825 601 750 601 675 601C600 601 525 601 450 601C375 601 300 601 225 601C150 601 75 601 37.5 601L0 601Z" fill="#121212"></path><path d="M0 547L37.5 547.7C75 548.3 150 549.7 225 546.8C300 544 375 537 450 538.3C525 539.7 600 549.3 675 552.7C750 556 825 553 862.5 551.5L900 550L900 601L862.5 601C825 601 750 601 675 601C600 601 525 601 450 601C375 601 300 601 225 601C150 601 75 601 37.5 601L0 601Z" fill="#000000"></path></svg>